<svg xmlns="http://www.w3.org/2000/svg" xmlns:xlink="http://www.w3.org/1999/xlink" width="1920" height="1080" viewBox="0 0 1920 1080">
  <defs>
    <linearGradient id="shade" x1="0" y1="0" x2="1" y2="0">
      <stop offset="0" stop-color="#030711" stop-opacity="0.96"/>
      <stop offset="0.42" stop-color="#07101f" stop-opacity="0.82"/>
      <stop offset="0.76" stop-color="#07101f" stop-opacity="0.28"/>
      <stop offset="1" stop-color="#030711" stop-opacity="0.08"/>
    </linearGradient>
    <linearGradient id="bottomShade" x1="0" y1="0" x2="0" y2="1">
      <stop offset="0" stop-color="#030711" stop-opacity="0"/>
      <stop offset="1" stop-color="#030711" stop-opacity="0.72"/>
    </linearGradient>
    <linearGradient id="signal" x1="0" y1="0" x2="1" y2="0">
      <stop offset="0" stop-color="#c6f36b"/>
      <stop offset="1" stop-color="#55d8ff"/>
    </linearGradient>
  </defs>

  <image x="0" y="0" width="1920" height="1080" preserveAspectRatio="xMidYMid slice" xlink:href="preview-unlock-wallpaper.jpg"/>
  <rect width="1920" height="1080" fill="url(#shade)"/>
  <rect width="1920" height="1080" fill="url(#bottomShade)"/>

  <rect x="36" y="36" width="1848" height="1008" rx="10" fill="none" stroke="#31445b" stroke-width="2" opacity="0.78"/>
  <path d="M120 315H820" stroke="url(#signal)" stroke-width="3" opacity="0.92"/>
  <path d="M120 315V352M820 315V352" stroke="#55d8ff" stroke-width="2" opacity="0.55"/>

  <text x="120" y="270" font-family="monospace" font-size="86" font-weight="700" letter-spacing="12" fill="#e8eef6">OLIGARCHY</text>

  <rect x="120" y="430" width="720" height="108" rx="12" fill="#050912" fill-opacity="0.86" stroke="#30455f" stroke-width="2"/>
  <rect x="120" y="430" width="6" height="108" rx="3" fill="url(#signal)"/>
  <rect x="164" y="480" width="12" height="12" fill="#c6f36b"/>
  <text x="198" y="494" font-family="monospace" font-size="18" letter-spacing="3" fill="#55d8ff">ENTER PASSPHRASE TO CONTINUE</text>

  <path d="M120 980H1800" stroke="#55d8ff" stroke-width="2" opacity="0.35"/>
  <path d="M120 980V952M1800 980V952" stroke="#55d8ff" stroke-width="2" opacity="0.35"/>
</svg>
